<svg width="80" height="80" viewBox="0 0 80 80" fill="none" xmlns="http://www.w3.org/2000/svg">
<rect width="80" height="80" fill="#F5F5F5"/>
<g clip-path="url(#clip0_1120_6029)">
<rect width="360" height="758" transform="translate(-32 -84)" fill="white"/>
<g filter="url(#filter0_d_1120_6029)">
<rect x="-32" y="-84" width="360" height="126" fill="#1E1E1E"/>
</g>
<g filter="url(#filter1_d_1120_6029)">
<rect x="-16" y="-12" width="328" height="104" rx="5" fill="white" shape-rendering="crispEdges"/>
<rect x="-15.85" y="-11.85" width="327.7" height="103.7" rx="4.85" stroke="#ADADAD" stroke-width="0.3" shape-rendering="crispEdges"/>
<g clip-path="url(#clip1_1120_6029)">
<rect width="80" height="80" rx="3.2" fill="#F4F4F4"/>
<path d="M43.8682 9.29107C43.4649 8.93284 43.0379 8.56267 42.516 8.44923C42.0001 8.34176 41.3714 8.58655 41.2231 9.11792C39.4973 7.04018 38.2874 9.11792 38.2874 9.11792C38.1332 8.58655 37.5046 8.34176 36.9886 8.44923C36.4726 8.56267 36.0397 8.93284 35.6364 9.29107C34.0232 7.60738 30.9867 7.87008 29.6642 9.81051C27.8375 8.96269 25.5067 9.5896 24.285 11.2494C23.7157 12.0315 23.2768 13.0824 22.3635 13.3152C21.8712 13.4466 21.3612 13.2913 20.863 13.2615C19.238 13.1719 17.6663 14.575 17.4944 16.2766C17.441 16.7602 17.4825 17.2916 17.2037 17.6856C16.8479 18.1931 16.154 18.2289 15.5787 18.42C14.6239 18.7364 13.8707 19.6619 13.7224 20.7067C13.5504 21.8829 14.0783 23.0591 14.0308 24.2472C13.9003 27.5191 9.84374 28.9938 8.69911 32.0388C7.92219 34.1165 8.60422 36.6958 7.39436 38.5228C6.49882 39.8781 4.83229 40.3915 3.65801 41.4901C2.3236 42.7439 1.7246 44.8097 2.1694 46.6367C2.37104 47.4487 2.75653 48.2129 2.87515 49.0428C3.07086 50.4519 2.48966 51.831 2.1694 53.2162C1.84914 54.6014 1.90844 56.303 3.00562 57.1388C4.47051 58.2553 6.81314 57.0672 8.21279 58.2732C8.85924 58.8285 9.1024 59.73 9.58279 60.4465C10.336 61.569 11.7297 62.166 13.0107 61.9153C13.8944 61.7421 14.7603 61.2107 15.638 61.4078C16.7115 61.6466 17.4706 62.9362 18.5678 62.8825C20.0861 62.8049 20.9757 60.2196 22.4109 60.7271C22.9803 60.9301 23.3005 61.569 23.8165 61.8974C25.4474 62.9303 27.3512 60.345 29.2075 60.763C29.7472 60.8824 30.2039 61.2466 30.7139 61.4496C32.1254 62.0168 33.7089 61.3122 34.9484 60.4047C35.4229 60.0525 35.9507 59.6524 36.526 59.7241C36.8996 59.7718 37.2199 60.0166 37.5698 60.1778C37.8266 60.2931 38.087 60.357 38.3485 60.3814C42.8505 43.9135 43.5284 26.4133 43.9904 9.17942C43.9495 9.21704 43.9068 9.25107 43.8682 9.29107Z" fill="#061F2D"/>
<path d="M76.5014 57.1335C76.238 57.3072 75.967 57.4505 75.7055 57.5275C74.2892 57.9425 72.513 57.2219 71.2924 58.2739C70.6519 58.8291 70.4088 59.7307 69.9284 60.4471C69.1752 61.5696 67.7755 62.1666 66.4945 61.9159C65.6108 61.7427 64.7508 61.2114 63.8731 61.4084C62.7937 61.6472 62.0405 62.9368 60.9374 62.8831C59.4251 62.8055 58.5355 60.2202 57.0943 60.7277C56.525 60.9307 56.2047 61.5696 55.6887 61.898C54.0637 62.9309 52.16 60.3456 50.2977 60.7636C49.7639 60.883 49.3073 61.2472 48.7913 61.4502C47.3798 62.0174 45.7963 61.3129 44.5627 60.4053C44.0823 60.0531 43.5604 59.653 42.9851 59.7247C42.6056 59.7725 42.2853 60.0173 41.9413 60.1785C41.2237 60.5009 40.4764 60.4352 39.7529 60.1605C39.2903 60.3397 38.8158 60.4232 38.3473 60.3815C42.1133 46.6134 43.2046 32.123 43.7324 17.6683C43.685 17.6564 43.6375 17.6385 43.5901 17.6206C42.653 17.2265 41.8583 16.3906 41.6745 15.3816C40.5358 15.9608 39.0531 15.5428 38.2168 14.5756C37.8313 14.1338 37.5763 13.6084 37.434 13.0412C37.262 12.3605 37.262 11.6321 37.3984 10.9515C37.6368 9.78007 38.3283 8.62836 39.2268 7.84622C40.1414 7.04915 41.9135 7.1214 42.9982 7.44679C43.3594 6.38404 44.2425 5.51592 45.307 5.17799C46.371 4.84006 47.5892 5.04186 48.4906 5.70399C49.3933 4.95171 50.4667 4.40899 51.6054 4.13016C52.4488 3.92358 53.4499 3.90269 54.0625 4.52123C54.5945 5.05858 54.6556 5.89326 54.6847 6.65152C54.6959 6.94706 54.7072 7.2426 54.719 7.53814C55.5102 7.29633 56.3239 7.05214 57.1483 7.11543C57.9726 7.17871 58.8225 7.61934 59.1321 8.39073C59.3818 9.01286 59.2442 9.72216 59.3699 10.3813C59.3397 10.2237 60.5122 9.94247 60.6432 9.92038C61.1408 9.83739 61.6556 9.85112 62.1479 9.96158C63.0493 10.164 63.8085 10.4786 64.1993 11.3635C64.7093 12.4859 64.4187 13.7994 64.1163 14.9935C64.9644 14.492 66.1268 14.8025 66.7139 15.6025C67.2951 16.3966 67.3663 17.4832 67.1409 18.4445C67.5205 18.3848 67.8763 18.8266 68.2559 18.8923C69.5666 19.1251 70.5096 20.3909 70.7527 21.7044C70.901 22.4985 70.8417 23.3164 70.6875 24.1105C70.6163 24.4688 70.4562 25.0419 70.7112 25.3584C71.0967 25.842 71.8084 25.3822 72.2532 25.7106C73.7062 26.7913 74.2044 28.8272 73.896 30.6184C73.7495 31.4698 73.2324 32.1248 73.5556 33.0347C74.0194 34.3398 75.7482 34.8073 76.2825 36.0844C76.7617 37.229 76.1022 38.4941 75.7962 39.6972C75.731 39.9539 75.6823 40.2285 75.7612 40.4811C75.9047 40.9402 76.3976 41.1665 76.8021 41.4232C77.6733 41.9761 78.3031 42.9016 78.5 43.9189C78.6975 44.9369 78.4597 46.0325 77.8583 46.8743C77.5446 47.3138 77.1407 47.6827 76.8347 48.1275C76.5287 48.5724 76.3234 49.1372 76.4812 49.6548C76.6615 50.2453 77.2415 50.5964 77.6845 51.0233C78.5498 51.8573 78.949 53.1523 78.7046 54.3333C78.5492 55.0838 78.1371 55.7728 77.5689 56.2809C77.2676 56.5508 76.8928 56.8756 76.5014 57.1335Z" fill="#092E47"/>
<path d="M46.8809 61.9929C46.8809 61.9929 46.2937 64.1781 39.7522 64.1781C33.2165 64.1781 32.3862 61.9929 32.3862 61.9929C32.92 61.4496 33.0149 57.6404 33.003 54.7328C32.9971 52.858 32.9496 51.3594 32.9496 51.3594H46.3175C46.3175 51.3594 46.2107 54.5775 46.2937 57.4852C46.3531 59.6346 46.5072 61.6168 46.8809 61.9929Z" fill="#9D2F1B"/>
<path d="M46.3175 51.3594H32.9497C32.9497 51.3594 32.9972 52.858 33.0031 54.7328C34.8179 55.8134 36.7869 56.6015 38.8508 57.0971C40.3394 57.4553 41.8814 57.6822 43.4115 57.7538C44.3604 57.7956 45.3627 57.7479 46.2938 57.4852C46.2108 54.5775 46.3175 51.3594 46.3175 51.3594Z" fill="#521A0D"/>
<path d="M23.7561 28.9245C23.7561 28.9245 20.5251 25.7488 18.6178 30.0297C16.711 34.3105 24.1268 38.6302 24.1268 38.6302L23.7561 28.9245Z" fill="#521A0D"/>
<path d="M55.0002 40.2661C55.0951 40.5527 55.2078 40.8333 55.3501 41.096C54.935 43.4663 54.4012 45.3889 53.8437 46.4158C52.1891 49.4608 47.3081 53.4371 39.7524 53.4371C32.2026 53.4371 27.3216 49.4608 25.6669 46.4158C24.0122 43.3708 22.5948 32.5522 23.775 25.4473C24.8663 18.9275 29.1304 13.8346 37.4334 13.0406C37.5758 13.6078 37.8308 14.1332 38.2163 14.575C39.0525 15.5422 40.5352 15.9601 41.6739 15.381C41.8578 16.39 42.6525 17.2259 43.5895 17.62C44.5266 18.014 45.5941 18.02 46.5905 17.805C47.5868 17.5961 48.5298 17.1781 49.455 16.7542C49.3008 17.9603 49.8998 18.9812 50.8962 19.6738C51.3766 20.0082 51.9103 20.247 52.4678 20.4321C52.7465 20.5216 53.0312 20.5933 53.3159 20.6589C53.4938 20.7007 54.0454 20.7127 54.1521 20.8739C54.2826 21.0769 53.6065 22.1337 53.5116 22.4083C53.3159 22.9815 53.2151 23.6024 53.304 24.2114C53.4167 25.0473 53.8674 25.8055 54.4427 26.4205C54.757 26.7549 55.1129 27.0593 55.4925 27.3101C54.7867 28.1281 54.33 29.161 54.1996 30.2416C54.0038 31.9373 54.7274 33.4299 55.5399 34.8569C54.5969 36.445 54.4249 38.4989 55.0002 40.2661Z" fill="#9D2F1B"/>
<path d="M39.6337 47.8308C32.2262 47.8308 33.4717 39.9915 33.4717 39.9915C33.4717 39.9915 33.4717 39.9975 33.4776 40.0035C33.5429 40.308 34.729 45.1083 39.6337 45.1083C44.5443 45.1083 45.7305 40.308 45.7957 40.0035C45.8016 39.9975 45.8016 39.9915 45.8016 39.9915C45.8016 39.9915 47.0471 47.8308 39.6337 47.8308Z" fill="#521A0D"/>
<path d="M43.4609 36.5346C42.9568 36.7734 42.34 36.3495 41.8121 36.5346C41.397 36.6779 41.1894 37.1495 40.8632 37.454C40.5726 37.7346 40.1575 37.866 39.7542 37.8421C39.3509 37.866 38.9417 37.7346 38.6452 37.454C38.319 37.1495 38.1173 36.6779 37.6962 36.5346C37.1684 36.3495 36.5516 36.7734 36.0475 36.5346C35.6205 36.3316 35.5078 35.7286 35.6976 35.2927C35.8874 34.8569 36.2907 34.5524 36.6821 34.2897C37.0794 34.021 37.4946 33.7583 37.7437 33.3523C38.0817 32.809 38.0639 32.1104 38.3486 31.5372C38.3842 31.4674 38.4239 31.4005 38.4678 31.3366C39.0745 30.4554 40.4499 30.4554 41.0471 31.3432C41.0886 31.4053 41.1266 31.4698 41.1598 31.5366C41.4445 32.1098 41.4267 32.8084 41.7647 33.3517C42.0197 33.7577 42.4349 34.0204 42.8263 34.2891C43.2177 34.5518 43.621 34.8563 43.8108 35.2921C44.0006 35.7286 43.8938 36.3316 43.4609 36.5346Z" fill="#521A0D"/>
<path d="M53.9269 28.2475C53.9269 28.3132 53.921 28.3729 53.9151 28.4385C53.8142 29.3938 53.3161 31.1074 51.1336 32.3731C50.8311 32.5463 50.499 32.7075 50.1313 32.8627C49.7102 33.0418 49.3128 33.1732 48.9451 33.2747C46.1458 34.0508 44.9419 32.8627 44.9419 32.8627C44.9419 32.8627 44.9597 32.7314 45.0071 32.4985C45.0131 32.4925 45.0131 32.4925 45.0131 32.4866C45.1969 31.5969 45.8434 29.3281 47.759 27.8176C48.2868 27.3937 48.9155 27.0355 49.6568 26.7847C50.3388 26.5459 51.1276 26.3966 52.0232 26.3727C52.6696 26.3608 53.2686 26.7011 53.6185 27.2385C53.7549 27.4534 53.8558 27.6863 53.8973 27.931C53.9151 28.0385 53.9269 28.14 53.9269 28.2475Z" fill="#F5F6F6"/>
<path d="M51.8095 30.0625C51.8095 30.9641 51.5545 31.7761 51.1334 32.3731C50.831 32.5463 50.4988 32.7075 50.1311 32.8627C49.7101 33.0418 49.3127 33.1732 48.945 33.2747C47.9012 32.9403 47.1243 31.6328 47.1243 30.0625C47.1243 29.1968 47.3615 28.4027 47.7589 27.8176C48.2867 27.3937 48.9154 27.0355 49.6567 26.7847C50.8606 26.9221 51.8095 28.3371 51.8095 30.0625Z" fill="black"/>
<path d="M53.6599 27.8654C53.6599 27.8594 53.6599 27.8594 53.6599 27.8594C53.5828 27.8654 53.5117 27.8415 53.4464 27.7639C53.4464 27.7579 53.4405 27.7579 53.4405 27.7519C53.049 27.5668 52.6754 27.4176 52.2188 27.3937C51.7206 27.3698 51.2165 27.4236 50.7361 27.5191C49.8227 27.7042 48.9509 28.0445 48.1621 28.54C46.6973 29.4476 45.5941 30.8626 45.0129 32.4866C45.1968 31.5969 45.8432 29.3281 47.7589 27.8176C48.2867 27.3937 48.9154 27.0355 49.6567 26.7847C50.3387 26.5459 51.1275 26.3966 52.023 26.3727C52.6695 26.3608 53.2685 26.7011 53.6184 27.2385C53.7548 27.4534 53.8556 27.6863 53.8972 27.931C53.8141 27.9251 53.737 27.9012 53.6599 27.8654Z" fill="#061F2D"/>
<path d="M25.5808 28.2475C25.5808 28.3132 25.5867 28.3729 25.5927 28.4385C25.6935 29.3938 26.1917 31.1074 28.3742 32.3731C28.6766 32.5463 29.0088 32.7075 29.3765 32.8627C29.7976 33.0418 30.1949 33.1732 30.5626 33.2747C33.3619 34.0508 34.5658 32.8627 34.5658 32.8627C34.5658 32.8627 34.5481 32.7314 34.5006 32.4985C34.4947 32.4925 34.4947 32.4925 34.4947 32.4866C34.3108 31.5969 33.6644 29.3281 31.7488 27.8176C31.2209 27.3937 30.5923 27.0355 29.8509 26.7847C29.1689 26.5459 28.3801 26.3966 27.4846 26.3727C26.8381 26.3608 26.2391 26.7011 25.8892 27.2385C25.7528 27.4534 25.652 27.6863 25.6105 27.931C25.5927 28.0385 25.5808 28.14 25.5808 28.2475Z" fill="#F5F6F6"/>
<path d="M27.6981 30.0625C27.6981 30.9641 27.9531 31.7761 28.3742 32.3731C28.6767 32.5463 29.0088 32.7075 29.3765 32.8627C29.7976 33.0418 30.195 33.1732 30.5627 33.2747C31.6065 32.9403 32.3834 31.6328 32.3834 30.0625C32.3834 29.1968 32.1462 28.4027 31.7488 27.8176C31.221 27.3937 30.5923 27.0355 29.851 26.7847C28.647 26.9221 27.6981 28.3371 27.6981 30.0625Z" fill="black"/>
<path d="M25.8477 27.8654C25.8477 27.8594 25.8477 27.8594 25.8477 27.8594C25.9248 27.8654 25.996 27.8415 26.0612 27.7639C26.0612 27.7579 26.0671 27.7579 26.0671 27.7519C26.4586 27.5668 26.8322 27.4176 27.2889 27.3937C27.787 27.3698 28.2912 27.4236 28.7715 27.5191C29.6849 27.7042 30.5567 28.0445 31.3455 28.54C32.8104 29.4476 33.9135 30.8626 34.4947 32.4866C34.3108 31.5969 33.6644 29.3281 31.7488 27.8176C31.2209 27.3937 30.5923 27.0355 29.8509 26.7847C29.1689 26.5459 28.3801 26.3966 27.4846 26.3727C26.8381 26.3608 26.2391 26.7011 25.8892 27.2385C25.7528 27.4534 25.652 27.6863 25.6105 27.931C25.6935 27.9251 25.7706 27.9012 25.8477 27.8654Z" fill="#061F2D"/>
<path d="M51.5525 22.1539C50.6979 21.7832 49.8291 21.5927 48.9003 21.5282C48.4015 21.4936 47.901 21.4972 47.4016 21.5151C46.9728 21.5306 46.324 21.4518 45.9498 21.7056C45.7167 21.8638 45.5833 22.1737 45.5773 22.4596C45.5673 22.9761 45.9658 23.1445 46.4047 23.2531C47.7646 23.5887 49.2212 23.9714 50.6321 23.7612C50.9684 23.7111 51.6504 23.634 51.8757 23.3278C52.1367 22.9719 51.9446 22.3235 51.5525 22.1539Z" fill="black"/>
<path d="M27.9557 22.1539C28.8103 21.7832 29.6792 21.5927 30.6079 21.5282C31.1067 21.4936 31.6072 21.4972 32.1066 21.5151C32.5354 21.5306 33.1842 21.4518 33.5584 21.7056C33.7915 21.8638 33.925 22.1737 33.9309 22.4596C33.941 22.9761 33.5424 23.1445 33.1036 23.2531C31.7431 23.5887 30.2871 23.9714 28.8761 23.7612C28.5399 23.7111 27.8578 23.634 27.6325 23.3278C27.3709 22.9719 27.5637 22.3235 27.9557 22.1539Z" fill="black"/>
<path d="M45.7955 40.0035C45.7303 40.308 44.5441 45.1083 39.6335 45.1083C34.7288 45.1083 33.5427 40.308 33.4774 40.0035C33.5486 40.1527 34.5568 42.0036 39.6335 42.0036C44.7161 42.0036 45.7243 40.1527 45.7955 40.0035Z" fill="#F5F6F6"/>
<path d="M45.8018 39.9915C45.8018 39.9915 45.8018 39.9975 45.7958 40.0035C45.7247 40.1527 44.7164 42.0036 39.6338 42.0036C34.5571 42.0036 33.5489 40.1527 33.4777 40.0035C33.4718 39.9975 33.4718 39.9915 33.4718 39.9915C33.4718 39.9915 36.8998 39.6811 39.5152 39.6631H39.7524C42.3738 39.6811 45.8018 39.9915 45.8018 39.9915Z" fill="#521A0D"/>
<path d="M52.4442 65.211L52.3493 65.3782C52.3493 65.3782 51.8986 66.1722 50.837 67.1693C50.5701 67.4201 50.2676 67.6828 49.9177 67.9514C49.1586 68.5306 48.2037 69.1276 47.0235 69.6351C46.6736 69.7844 46.3059 69.9337 45.9145 70.059C44.9774 70.3874 43.9218 70.6501 42.7415 70.8113C42.362 70.871 41.9706 70.9128 41.5613 70.9427C40.9861 70.9964 40.3811 71.0203 39.7525 71.0203C39.1238 71.0203 38.5248 70.9964 37.9495 70.9427C37.5403 70.9128 37.1489 70.871 36.7693 70.8113C35.5832 70.6501 34.5334 70.3874 33.5964 70.059C33.205 69.9337 32.8373 69.7904 32.4874 69.6351C31.3071 69.1276 30.3523 68.5306 29.5932 67.9514C29.2433 67.6828 28.9408 67.4201 28.6739 67.1693C27.6123 66.1722 27.1616 65.3782 27.1616 65.3782L27.1556 65.3722C27.3632 65.2408 27.5471 65.1035 27.7013 64.9304C29.439 62.9601 31.1292 59.9091 31.9714 60.0763C32.1197 60.1062 32.3213 60.2136 32.5763 60.3689C32.8432 60.5361 33.1812 60.7629 33.5727 61.0137C34.0531 61.3242 34.6224 61.6705 35.2807 61.9869C35.6188 62.1541 35.9805 62.3153 36.366 62.4586C36.8108 62.6257 37.2912 62.775 37.7953 62.8825C38.1749 62.972 38.5663 63.0377 38.9756 63.0735C39.278 63.1034 39.5923 63.1213 39.9185 63.1213C40.1261 63.1213 40.3337 63.1153 40.5353 63.1034C40.9445 63.0735 41.336 63.0258 41.7096 62.9541C42.2256 62.8586 42.7178 62.7213 43.1745 62.566C43.5659 62.4287 43.9336 62.2794 44.2776 62.1242C44.9419 61.8197 45.5171 61.4854 46.0153 61.1689C46.4008 60.9301 46.7389 60.7032 47.0235 60.5241C47.3972 60.2793 47.6759 60.1121 47.8657 60.0763C48.7078 59.9091 50.3981 62.9601 52.1358 64.9304C52.2248 65.0319 52.3315 65.1214 52.4442 65.211Z" fill="#FED79A"/>
<path d="M65.1001 68.6321C59.5246 65.9048 54.4444 66.7926 52.444 65.211L52.3473 65.3806C52.3473 65.3806 49.1613 71.0191 39.7546 71.0191C30.3479 71.0191 27.1619 65.3806 27.1619 65.3806L27.1578 65.3728C25.0162 66.7299 20.1085 66.0045 14.7371 68.6321C8.85384 71.5099 9.097 80 9.097 80H70.7408C70.7408 80 70.9834 71.5099 65.1001 68.6321Z" fill="#DC9332"/>
<path d="M38.9754 63.0735C38.8034 65.7185 38.4653 68.3455 37.9494 70.9427C37.5402 70.9128 37.1487 70.871 36.7692 70.8113C37.2911 68.1962 37.6291 65.5453 37.7952 62.8825C38.1747 62.972 38.5662 63.0377 38.9754 63.0735Z" fill="#DC9332"/>
<path d="M36.3657 62.4585C35.4821 65.008 34.5569 67.5395 33.5961 70.059C33.2047 69.9336 32.837 69.7904 32.4871 69.6351C33.4597 67.0976 34.3908 64.5542 35.2804 61.9869C35.6185 62.1541 35.9802 62.3153 36.3657 62.4585Z" fill="#DC9332"/>
<path d="M33.5726 61.0138C32.2975 63.3542 30.969 65.6648 29.5931 67.9515C29.2432 67.6828 28.9407 67.4201 28.6738 67.1694C30.0201 64.9304 31.3249 62.6616 32.5762 60.369C32.8431 60.5361 33.1812 60.763 33.5726 61.0138Z" fill="#DC9332"/>
<path d="M42.7413 70.8114C42.3617 70.8711 41.9703 70.9129 41.5611 70.9427C41.051 68.3515 40.707 65.7364 40.535 63.1034C40.9443 63.0736 41.3357 63.0258 41.7093 62.9542C41.8872 65.5931 42.2253 68.2142 42.7413 70.8114Z" fill="#DC9332"/>
<path d="M47.0234 69.6352C46.6734 69.7845 46.3057 69.9337 45.9143 70.0591C44.9654 67.5754 44.0521 65.0797 43.1743 62.5661C43.5657 62.4288 43.9334 62.2795 44.2774 62.1243C45.1552 64.6438 46.0685 67.1455 47.0234 69.6352Z" fill="#DC9332"/>
<path d="M50.8367 67.1693C50.5698 67.4201 50.2673 67.6828 49.9174 67.9515C48.5711 65.7185 47.2723 63.4557 46.015 61.169C46.4005 60.9301 46.7386 60.7033 47.0232 60.5241C48.245 62.7631 49.5201 64.9782 50.8367 67.1693Z" fill="#DC9332"/>
<path d="M13.687 36.0349C12.454 36.7262 11.1914 37.506 10.6416 38.8834C10.4044 39.4781 10.3297 40.1402 10.4981 40.7641C10.6309 41.2585 11.5971 42.4227 11.0716 42.8526C10.8628 43.0234 10.3688 43.0837 10.1215 43.1822C9.82792 43.2986 9.53495 43.4252 9.26984 43.5989C8.78115 43.9183 8.3743 44.359 8.16851 44.9142C7.95915 45.479 7.97042 46.1036 8.27704 46.6307C8.4597 46.9448 8.95551 47.2726 9.20282 47.6207C6.92069 48.7449 5.99431 51.5099 7.25281 53.8479C7.61695 54.5238 8.64118 53.922 8.27704 53.2455C7.29254 51.4167 8.13233 49.1927 10.0972 48.5288C10.3249 48.4518 10.5592 48.2195 10.5325 47.9532C10.4856 47.4845 10.3219 47.1323 10.0076 46.7812C9.60018 46.3263 9.02075 46.0026 9.29356 45.3071C9.78344 44.0551 11.4974 44.4443 12.1676 43.4341C12.9237 42.295 11.8117 41.397 11.6125 40.3372C11.3088 38.7234 13.1367 37.7114 14.286 37.0672C14.9532 36.6922 14.3554 35.6605 13.687 36.0349Z" fill="black"/>
<path d="M18.0244 44.9453C16.5678 45.2635 15.53 46.7472 15.0686 48.0852C14.5953 49.4584 14.6759 50.957 15.2483 52.2824C15.3758 52.578 15.8063 52.6454 16.0596 52.4968C16.3626 52.3183 16.4006 51.9767 16.2725 51.68C15.8401 50.6793 15.8496 49.5181 16.1829 48.4917C16.5032 47.5054 17.2683 46.3316 18.3399 46.097C19.0854 45.934 18.7699 44.7823 18.0244 44.9453Z" fill="black"/>
<path d="M23.0465 54.0849C21.829 52.8138 21.8213 50.7934 23.0341 49.5157C23.5613 48.9604 22.7239 48.1144 22.1955 48.6715C21.3996 49.5097 20.9245 50.6376 20.9275 51.803C20.9305 52.9685 21.4079 54.0945 22.2079 54.9298C22.7387 55.4838 23.5768 54.639 23.0465 54.0849Z" fill="black"/>
<path d="M24.725 15.3727C24.623 15.055 24.3193 14.8789 23.9955 14.9559C22.1066 15.4025 20.5356 17.0229 20.1578 18.9424C20.0979 19.2481 20.2444 19.6016 20.5723 19.6768C20.8665 19.7443 21.2372 19.5873 21.3018 19.2601C21.3433 19.0499 21.3979 18.8433 21.469 18.6415C21.4862 18.5932 21.504 18.5454 21.5224 18.4976C21.5266 18.4869 21.5307 18.4767 21.5349 18.466C21.5361 18.463 21.5361 18.4636 21.5414 18.4511C21.5871 18.3597 21.628 18.2654 21.676 18.1746C21.7763 17.986 21.8889 17.8039 22.0141 17.6313C22.0248 17.6164 22.0663 17.5626 22.0722 17.5549C22.0953 17.5262 22.1185 17.497 22.1422 17.4689C22.208 17.3907 22.2768 17.3143 22.348 17.2402C22.4838 17.0987 22.6297 16.9722 22.7786 16.8456C22.7993 16.8289 22.8367 16.7984 22.8432 16.7936C22.8841 16.7632 22.9262 16.7339 22.9683 16.7047C23.0525 16.6468 23.1385 16.5918 23.2269 16.5399C23.3147 16.488 23.4042 16.439 23.4956 16.393C23.5412 16.3703 23.5869 16.3482 23.6332 16.3267C23.648 16.3202 23.6711 16.3106 23.6901 16.3023C23.8935 16.2235 24.0987 16.1566 24.311 16.1064C24.6129 16.0354 24.8211 15.6712 24.725 15.3727Z" fill="black"/>
<path d="M57.1228 14.9762C56.0031 15.0049 54.0709 15.0628 53.715 13.6406C53.5424 12.951 53.8028 12.216 53.645 11.5115C53.514 10.9294 53.1563 10.4284 52.5983 10.2028C51.2585 9.66123 49.9277 10.6476 48.5832 10.5508C47.9776 10.5073 47.5038 10.2034 47.4077 9.56929C47.2944 8.82297 47.6942 8.1077 48.0251 7.47124C48.3792 6.7912 47.3561 6.18699 47.0009 6.86882C46.3271 8.16263 45.6587 9.95677 46.9421 11.1312C48.1983 12.2805 49.8369 11.487 51.2573 11.281C51.5877 11.2333 52.1102 11.1604 52.3527 11.4512C52.5639 11.7043 52.5384 12.139 52.5265 12.4405C52.4939 13.2674 52.4417 14.0502 52.9446 14.7571C53.9089 16.113 55.6111 16.2097 57.1228 16.1709C57.8849 16.1512 57.8879 14.9571 57.1228 14.9762Z" fill="#061F2D"/>
<path d="M59.9225 41.8687C57.8532 42.7392 56.8515 45.199 58.0448 47.2135C58.3668 47.7574 58.811 48.0947 58.7203 48.7867C58.642 49.3808 58.403 49.9659 58.1865 50.5194C57.7388 51.6651 57.2578 52.7995 57.3283 54.0569C57.371 54.8211 58.5572 54.8259 58.5145 54.0569C58.454 52.9786 58.8703 51.9989 59.2594 51.0173C59.6241 50.096 60.0968 48.9975 59.8661 47.9849C59.7546 47.4947 59.4344 47.1627 59.1627 46.7597C58.8745 46.3322 58.7149 45.8349 58.7138 45.3166C58.7108 44.3279 59.3306 43.4019 60.2374 43.0204C60.9318 42.7278 60.627 41.5719 59.9225 41.8687Z" fill="#061F2D"/>
<path d="M67.6852 46.3066C67.3394 45.5423 66.7137 45.1178 65.9528 44.8277C65.5377 44.6694 64.9564 44.5679 64.654 44.2109C64.2015 43.6759 64.721 43.0586 65.0691 42.6018C65.9018 41.508 67.9111 40.4608 66.5827 38.9055C66.0845 38.3222 65.1682 37.9783 65.1468 37.106C65.1207 36.0277 66.1444 35.2808 66.9011 34.6909C67.5043 34.2216 66.6592 33.3822 66.0625 33.8467C64.7471 34.8712 63.195 36.6152 64.3254 38.3681C64.6742 38.9097 65.5549 39.2392 65.7897 39.819C65.9629 40.2471 65.4315 40.5504 65.1557 40.7916C64.7779 41.1218 64.4399 41.4752 64.1344 41.8752C63.6203 42.5487 63.0391 43.412 63.3279 44.2981C63.5722 45.0486 64.2952 45.4832 64.9855 45.7471C65.935 46.1101 66.744 46.4134 66.7748 47.5854C66.8039 48.6989 66.0435 49.6727 65.4256 50.5259C64.9754 51.1475 66.0038 51.7439 66.4498 51.1283C67.4467 49.7527 68.4686 48.0386 67.6852 46.3066Z" fill="#061F2D"/>
<path d="M64.6326 26.6969C63.7258 26.2456 63.0556 25.3876 62.905 24.369C62.7502 23.3188 63.2051 22.2674 63.9903 21.585C64.2329 21.3742 64.205 20.9569 63.9903 20.7407C63.7495 20.4983 63.3949 20.5294 63.1517 20.7407C62.0628 21.6877 61.5368 23.1731 61.7479 24.5995C61.9448 25.9291 62.8403 27.134 64.0336 27.7286C64.7162 28.0672 65.3176 27.0378 64.6326 26.6969Z" fill="#061F2D"/>
<path d="M75.0043 47.4941C74.7813 46.869 74.3318 46.3788 73.6978 46.1728C72.9695 45.9358 72.6581 47.0887 73.3823 47.3239C74.2713 47.6129 73.951 49.0518 73.798 49.7056C73.559 50.7277 73.1231 51.6728 72.5229 52.5308C72.3385 52.7947 72.4761 53.1947 72.7358 53.3476C73.0324 53.5225 73.3621 53.3977 73.5472 53.1332C74.3004 52.0567 74.827 50.8041 75.0458 49.5049C75.1573 48.8464 75.2338 48.1371 75.0043 47.4941Z" fill="#061F2D"/>
</g>
<rect x="0.5" y="0.5" width="79" height="79" rx="2.7" stroke="black"/>
<path d="M64 66C64 64.8954 64.8954 64 66 64H80V80H64V66Z" fill="black"/>
<path d="M67.974 77C67.6926 77 67.46 76.908 67.276 76.724C67.092 76.54 67 76.3074 67 76.026V67.974C67 67.6926 67.092 67.46 67.276 67.276C67.46 67.092 67.6926 67 67.974 67H76.026C76.3074 67 76.5401 67.092 76.724 67.276C76.908 67.46 77 67.6926 77 67.974V76.026C77 76.3074 76.908 76.54 76.724 76.724C76.5401 76.908 76.3074 77 76.026 77H67.974ZM67.974 76.5455H76.026C76.1559 76.5455 76.2749 76.4913 76.3831 76.3831C76.4914 76.2749 76.5455 76.1558 76.5455 76.026V67.974C76.5455 67.8442 76.4914 67.7251 76.3831 67.6169C76.2749 67.5087 76.1559 67.4545 76.026 67.4545H67.974C67.8442 67.4545 67.7251 67.5087 67.6169 67.6169C67.5087 67.7251 67.4545 67.8442 67.4545 67.974V76.026C67.4545 76.1558 67.5087 76.2749 67.6169 76.3831C67.7251 76.4913 67.8442 76.5455 67.974 76.5455ZM69.3701 74.8247H74.7598L73.1039 72.6169L71.4805 74.6299L70.4416 73.4286L69.3701 74.8247Z" fill="white"/>
</g>
</g>
<path d="M0.5 72H-163" stroke="#FF0000" stroke-width="12"/>
<defs>
<filter id="filter0_d_1120_6029" x="-67" y="-115" width="430" height="196" filterUnits="userSpaceOnUse" color-interpolation-filters="sRGB">
<feFlood flood-opacity="0" result="BackgroundImageFix"/>
<feColorMatrix in="SourceAlpha" type="matrix" values="0 0 0 0 0 0 0 0 0 0 0 0 0 0 0 0 0 0 127 0" result="hardAlpha"/>
<feOffset dy="4"/>
<feGaussianBlur stdDeviation="17.5"/>
<feComposite in2="hardAlpha" operator="out"/>
<feColorMatrix type="matrix" values="0 0 0 0 0 0 0 0 0 0 0 0 0 0 0 0 0 0 0.02 0"/>
<feBlend mode="normal" in2="BackgroundImageFix" result="effect1_dropShadow_1120_6029"/>
<feBlend mode="normal" in="SourceGraphic" in2="effect1_dropShadow_1120_6029" result="shape"/>
</filter>
<filter id="filter1_d_1120_6029" x="-18" y="-13" width="332" height="108" filterUnits="userSpaceOnUse" color-interpolation-filters="sRGB">
<feFlood flood-opacity="0" result="BackgroundImageFix"/>
<feColorMatrix in="SourceAlpha" type="matrix" values="0 0 0 0 0 0 0 0 0 0 0 0 0 0 0 0 0 0 127 0" result="hardAlpha"/>
<feOffset dy="1"/>
<feGaussianBlur stdDeviation="1"/>
<feComposite in2="hardAlpha" operator="out"/>
<feColorMatrix type="matrix" values="0 0 0 0 0.0627451 0 0 0 0 0.0941176 0 0 0 0 0.156863 0 0 0 0.04 0"/>
<feBlend mode="normal" in2="BackgroundImageFix" result="effect1_dropShadow_1120_6029"/>
<feBlend mode="normal" in="SourceGraphic" in2="effect1_dropShadow_1120_6029" result="shape"/>
</filter>
<clipPath id="clip0_1120_6029">
<rect width="360" height="758" fill="white" transform="translate(-32 -84)"/>
</clipPath>
<clipPath id="clip1_1120_6029">
<rect width="80" height="80" rx="3.2" fill="white"/>
</clipPath>
</defs>
</svg>
