<svg width="100" height="100" viewBox="0 0 100 100" fill="none" xmlns="http://www.w3.org/2000/svg">
<rect width="100" height="100" fill="#F5F5F5"/>
<g clip-path="url(#clip0_1120_6029)">
<rect width="100" height="100" rx="4" fill="#FAFAFA"/>
<path d="M8.06714 100.543H17.604C16.134 97.9939 14.3221 94.3558 13.2633 90.3841C9.42266 94.1947 8.06714 97.9901 8.06714 100.543Z" fill="#C8AD5D"/>
<path d="M85.7766 90.3841C85.7751 90.3826 85.7736 90.3819 85.7729 90.3804C85.7729 90.3819 85.7721 90.3826 85.7721 90.3841C84.714 94.3558 82.9021 97.9939 81.4314 100.543H90.9653C90.9653 97.9901 89.6173 94.1947 85.7766 90.3841Z" fill="#C8AD5D"/>
<path d="M49.5177 88.5369C56.5657 88.5369 60.7324 84.9409 62.9645 81.7652C61.5585 81.2629 60.578 80.8186 60.27 80.4444C59.1404 79.0512 59.0726 73.1697 59.2082 68.5534C59.3061 65.3076 59.5019 62.6945 59.5019 62.6945H39.5304C39.5304 62.6945 39.666 64.4943 39.7639 66.9493V66.9568C39.9672 71.6937 40.035 78.8855 38.7623 80.4444C38.4558 80.8194 37.476 81.2637 36.0708 81.7652C38.3037 84.9409 42.4697 88.5369 49.5177 88.5369Z" fill="#FEDA99"/>
<path d="M62.9654 81.7645C60.7333 84.941 56.5665 87.3071 49.5185 87.3071C42.4698 87.3071 38.3038 84.9402 36.0717 81.7645C30.1638 83.8746 16.659 87.0134 13.2642 90.3841C14.3222 94.3558 16.1341 97.9939 17.6048 100.543H81.4322C82.9022 97.9939 84.7141 94.3558 85.7729 90.3841C85.7729 90.3826 85.7736 90.3819 85.7736 90.3804C82.366 87.0119 68.8732 83.8746 62.9654 81.7645Z" fill="#746F19"/>
<path d="M49.8513 87.1685C49.8513 87.1685 52.0503 88.027 54.8442 88.9081C55.0852 88.9834 55.3337 89.0587 55.5897 89.134C56.8022 89.503 58.0974 89.857 59.3551 90.1356C59.6187 90.1959 59.8822 90.2561 60.1383 90.3088C62.774 90.836 65.1086 90.9715 66.0047 90.1055C66.0725 90.0377 66.1327 89.97 66.1854 89.8946C66.3285 89.7064 66.449 89.4804 66.5243 89.2244C66.8933 88.1626 66.7879 86.5661 66.3361 84.8641C66.2457 84.5403 66.1478 84.209 66.0348 83.8776C65.7637 83.0718 65.4248 82.2585 65.0257 81.4753C64.8826 81.1892 64.732 80.9105 64.5739 80.6394C63.8208 79.3592 62.9246 78.2296 61.9231 77.4539C61.7197 77.2807 61.5089 77.1301 61.2905 77.0096C60.6579 76.618 59.9952 76.377 59.3099 76.3318C59.3099 76.3318 59.3099 76.3394 59.3099 76.362C59.3174 77.8003 58.8129 79.1785 57.9017 80.2779C57.736 80.4888 57.5552 80.6846 57.3594 80.8653C57.3218 80.8955 57.2917 80.9331 57.254 80.9632C56.3804 81.7389 55.1981 82.7857 54.0309 83.8023C53.82 83.9906 53.6016 84.1788 53.3908 84.352C51.7265 85.7979 50.2128 87.0405 49.8513 87.1685Z" fill="#C8AD5D"/>
<path d="M57.3594 80.8653C60.3943 82.1004 63.399 83.4107 66.336 84.8641C66.2456 84.5403 66.1477 84.209 66.0347 83.8776C63.3689 82.5823 60.6428 81.4 57.9016 80.2779C57.7359 80.4888 57.5552 80.6846 57.3594 80.8653Z" fill="#611B0D"/>
<path d="M53.3906 84.352C57.7208 86.0464 62.0208 87.8162 66.1853 89.8946C66.3284 89.7064 66.4489 89.4804 66.5242 89.2244C62.4576 87.1986 58.2554 85.4666 54.0307 83.8023C53.8199 83.9906 53.6015 84.1788 53.3906 84.352Z" fill="#611B0D"/>
<path d="M59.355 90.1356C59.6186 90.1959 59.8821 90.2561 60.1382 90.3088C62.0435 87.5225 63.6776 84.5629 65.0256 81.4753C64.8825 81.1892 64.7319 80.9105 64.5738 80.6394C63.1655 83.9755 61.4109 87.161 59.355 90.1356Z" fill="#611B0D"/>
<path d="M54.8442 88.9081C55.0852 88.9834 55.3337 89.0587 55.5898 89.134C58.1728 85.5118 60.2965 81.5958 61.9231 77.4539C61.7198 77.2807 61.5089 77.1301 61.2905 77.0096C59.6564 81.2268 57.4875 85.2331 54.8442 88.9081Z" fill="#611B0D"/>
<path d="M49.1848 87.1685C49.1848 87.1685 46.9858 88.027 44.1919 88.9081C43.9509 88.9834 43.7024 89.0587 43.4464 89.134C42.2339 89.503 40.9386 89.857 39.681 90.1356C39.4174 90.1959 39.1539 90.2561 38.8978 90.3088C36.2621 90.836 33.9276 90.9715 33.0314 90.1055C32.9636 90.0377 32.9034 89.97 32.8506 89.8946C32.7076 89.7064 32.5871 89.4804 32.5118 89.2244C32.1428 88.1626 32.2482 86.5661 32.7 84.8641C32.7904 84.5403 32.8883 84.209 33.0013 83.8776C33.2724 83.0718 33.6113 82.2585 34.0104 81.4753C34.1535 81.1892 34.3041 80.9105 34.4622 80.6394C35.2153 79.3592 36.1114 78.2296 37.113 77.4539C37.3164 77.2807 37.5272 77.1301 37.7456 77.0096C38.3782 76.618 39.0409 76.377 39.7262 76.3318C39.7262 76.3318 39.7262 76.3394 39.7262 76.362C39.7187 77.8003 40.2232 79.1785 41.1344 80.2779C41.3001 80.4888 41.4808 80.6846 41.6766 80.8653C41.7143 80.8955 41.7444 80.9331 41.7821 80.9632C42.6556 81.7389 43.838 82.7857 45.0052 83.8023C45.2161 83.9906 45.4345 84.1788 45.6453 84.352C47.3096 85.7979 48.8233 87.0405 49.1848 87.1685Z" fill="#C8AD5D"/>
<path d="M41.6768 80.8653C38.6419 82.1004 35.6372 83.4107 32.7002 84.8641C32.7906 84.5403 32.8885 84.209 33.0014 83.8776C35.6673 82.5823 38.3934 81.4 41.1346 80.2779C41.3003 80.4888 41.481 80.6846 41.6768 80.8653Z" fill="#611B0D"/>
<path d="M45.6453 84.352C41.3151 86.0464 37.0151 87.8162 32.8506 89.8946C32.7075 89.7064 32.587 89.4804 32.5117 89.2244C36.5783 87.1986 40.7804 85.4666 45.0052 83.8023C45.216 83.9906 45.4344 84.1788 45.6453 84.352Z" fill="#611B0D"/>
<path d="M52.9051 100.543H46.135C46.135 100.543 47.2194 95.0231 48.4545 93.3061H50.5857C51.8132 95.0231 52.9051 100.543 52.9051 100.543Z" fill="#611B0D"/>
<path d="M39.5305 62.6937C39.5305 62.6937 39.6661 64.4936 39.764 66.9486V66.9561C41.6316 68.5978 44.1092 69.5467 46.5717 69.9985C48.5598 70.36 50.6007 70.5106 52.6114 70.375C54.5543 70.2546 56.5574 69.9006 58.3196 69.0572C58.6209 68.9141 58.9221 68.7484 59.2083 68.5526C59.3062 65.3069 59.502 62.6937 59.502 62.6937H39.5305Z" fill="#EFA02F"/>
<path d="M24.7883 39.21C23.7152 40.8261 23.5796 42.9271 24.0224 44.8158C24.524 46.9546 25.7327 48.9216 27.4143 50.3358C28.3202 51.0979 29.3805 51.7094 30.544 51.9301C31.7068 52.1507 32.9795 51.9459 33.9171 51.2237C34.2092 50.9985 34.4728 50.7161 34.5941 50.3675C34.7529 49.9111 34.6498 49.4096 34.5391 48.9389C33.7047 45.3995 32.5073 41.9459 30.9718 38.6497C30.3226 37.2573 29.4965 36.8627 27.9542 37.1247C26.6785 37.3401 25.5007 38.1361 24.7883 39.21Z" fill="#EFA02F"/>
<path d="M74.247 39.21C75.3201 40.8261 75.4556 42.9271 75.0128 44.8158C74.5113 46.9546 73.3026 48.9216 71.621 50.3358C70.7151 51.0979 69.654 51.7094 68.4913 51.9301C67.3285 52.1507 66.0558 51.9459 65.1182 51.2237C64.8261 50.9985 64.5625 50.7161 64.4412 50.3675C64.2823 49.9111 64.3855 49.4096 64.4969 48.9389C65.3314 45.3995 66.5287 41.9459 68.0642 38.6497C68.7134 37.2573 69.5395 36.8627 71.0818 37.1247C72.3568 37.3401 73.5338 38.1361 74.247 39.21Z" fill="#EFA02F"/>
<path d="M27.6816 39.7055C26.9684 40.1137 26.5595 40.927 26.4571 41.7418C26.3546 42.5566 26.5196 43.3805 26.7229 44.1765C27.1627 45.895 27.8781 47.682 29.3616 48.655C29.8135 48.9517 30.3414 49.1626 30.8814 49.1385C31.4213 49.1136 31.968 48.8169 32.1872 48.3229C32.3762 47.8966 32.3032 47.4049 32.2166 46.947C31.8626 45.0847 31.3324 43.2555 30.6359 41.4918C30.1381 40.2334 29.3338 38.7596 27.6816 39.7055Z" fill="#CF760F"/>
<path d="M71.3538 39.7055C72.067 40.1137 72.4759 40.927 72.5783 41.7418C72.6807 42.5566 72.5158 43.3805 72.3124 44.1765C71.8726 45.895 71.1572 47.682 69.6737 48.655C69.2218 48.9517 68.694 49.1626 68.154 49.1385C67.6141 49.1136 67.0673 48.8169 66.8482 48.3229C66.6591 47.8966 66.7322 47.4049 66.8188 46.947C67.1727 45.0847 67.7029 43.2555 68.3995 41.4918C68.8973 40.2334 69.7016 38.7596 71.3538 39.7055Z" fill="#CF760F"/>
<path d="M49.5178 67.1346C41.652 67.1346 38.0929 62.8233 35.4233 56.8002C32.7544 50.7779 26.5943 33.394 27.0055 30.6566C27.4159 27.9192 29.4191 12.8841 49.5178 12.8841C69.6165 12.8841 71.6197 27.9192 72.0301 30.6566C72.4405 33.394 66.2812 50.7779 63.6123 56.8002C60.9426 62.8233 57.3836 67.1346 49.5178 67.1346Z" fill="#FEDA99"/>
<path d="M54.7622 17.9448C55.2954 18.9742 56.1305 19.957 57.2677 20.1821C58.9704 20.5195 60.5209 19.0706 62.2485 18.8997C62.5648 18.868 62.8931 18.8831 63.1853 19.0081C63.6266 19.1971 63.9301 19.6166 64.1191 20.0586C64.5951 21.1717 64.4565 22.4406 64.6591 23.6335C64.8616 24.8263 65.6629 26.1224 66.8731 26.1306C67.6954 26.1367 68.5336 25.4393 69.3552 25.6818C70.1158 25.9062 70.5277 26.8212 70.6031 27.5419C70.6791 28.2679 70.5277 28.9953 70.4562 29.722C70.3365 30.945 70.4472 32.1898 70.7808 33.3722C71.0948 34.4875 71.7251 35.654 72.8329 35.9936C73.6605 36.2474 74.632 35.9281 75.1471 35.233C76.0478 34.0183 75.44 32.2749 75.8392 30.8162C76.1035 29.8516 76.7933 29.0684 77.2482 28.1775C78.3732 25.9725 77.9749 23.3262 77.4613 20.9051C77.0554 18.9915 76.5817 17.0576 75.5944 15.3693C74.6071 13.6801 73.0287 12.244 71.1106 11.8577C70.4012 11.7154 69.6406 11.7093 69.0156 11.3456C67.7399 10.6038 67.4387 8.90264 66.9236 7.66082C66.2669 6.07938 64.2584 6.663 63.3254 7.66986C62.9895 8.03208 62.7079 8.45907 62.2884 8.71963C61.579 9.15943 60.6188 9.00354 59.9305 8.53287C59.2415 8.0622 58.7776 7.33173 58.3905 6.59297C58.0034 5.85345 57.6698 5.07779 57.1585 4.41885C56.4287 3.47751 55.3443 2.81782 54.1725 2.60169C53.3133 2.44355 52.2959 2.58287 51.7921 3.29678C51.2303 4.09278 51.5617 5.21335 52.0993 6.02516C52.6378 6.83697 53.372 7.54711 53.6612 8.47715C53.9737 9.481 53.7124 10.5594 53.5573 11.5994C53.3893 12.726 53.671 13.6229 53.8434 14.7103C54.0227 15.8399 54.2283 16.9146 54.7622 17.9448Z" fill="#CF760F"/>
<path d="M44.3501 39.5519C44.1618 40.2146 43.6196 40.7267 43.0021 41.0128C42.377 41.2915 41.6766 41.3743 40.9989 41.3743C40.0877 41.3818 39.184 41.2613 38.2954 41.0806C37.5875 40.9375 36.8796 40.7492 36.2395 40.4104C35.5994 40.079 35.0195 39.582 34.6957 38.9344C34.2664 38.106 34.2965 37.0818 34.6881 36.2384C35.0496 35.4627 35.8027 34.6343 36.6311 34.3482C37.0151 34.2201 37.4444 34.1825 37.8812 34.2126C38.4912 34.2502 39.1162 34.4009 39.6283 34.5891C40.5696 34.913 41.4357 35.4326 42.2565 35.9898C42.3695 36.0651 42.4824 36.148 42.5879 36.2233C43.0849 36.5848 43.5443 36.9764 43.8982 37.4659C44.3275 38.0683 44.5609 38.844 44.3501 39.5519Z" fill="#F5F7F7"/>
<path d="M54.6852 39.5519C54.8735 40.2146 55.4157 40.7267 56.0332 41.0128C56.6583 41.2915 57.3586 41.3743 58.0364 41.3743C58.9476 41.3818 59.8513 41.2613 60.7399 41.0806C61.4478 40.9375 62.1557 40.7492 62.7958 40.4104C63.4359 40.079 64.0158 39.582 64.3396 38.9344C64.7688 38.106 64.7387 37.0818 64.3471 36.2384C63.9856 35.4627 63.2326 34.6343 62.4042 34.3482C62.0201 34.2201 61.5909 34.1825 61.1541 34.2126C60.5441 34.2502 59.919 34.4009 59.4069 34.5891C58.4656 34.913 57.5996 35.4326 56.7787 35.9898C56.6658 36.0651 56.5528 36.148 56.4474 36.2233C55.9504 36.5848 55.491 36.9764 55.137 37.4659C54.7078 38.0683 54.4743 38.844 54.6852 39.5519Z" fill="#F5F7F7"/>
<path d="M42.6029 36.5396C42.6029 38.3846 41.3678 39.8832 39.8542 39.8832C38.333 39.8832 37.1055 38.3846 37.1055 36.5396C37.1055 35.6359 37.3992 34.815 37.8811 34.2126C38.4911 34.2502 39.1162 34.4009 39.6282 34.5891C40.5696 34.9129 41.4356 35.4326 42.2565 35.9898C42.3694 36.0651 42.4824 36.148 42.5878 36.2233C42.5954 36.3287 42.6029 36.4341 42.6029 36.5396Z" fill="#093747"/>
<path d="M56.4324 36.5396C56.4324 38.3846 57.6674 39.8832 59.1811 39.8832C60.7023 39.8832 61.9298 38.3846 61.9298 36.5396C61.9298 35.6359 61.6361 34.815 61.1541 34.2126C60.5441 34.2502 59.9191 34.4009 59.407 34.5891C58.4657 34.9129 57.5996 35.4326 56.7788 35.9898C56.6658 36.0651 56.5529 36.148 56.4474 36.2233C56.4399 36.3287 56.4324 36.4341 56.4324 36.5396Z" fill="#093747"/>
<path d="M40.2994 28.1037C39.2556 27.8115 38.1501 27.7791 37.074 27.9124C35.2011 28.1436 33.3244 28.9313 32.1542 30.4111C31.8364 30.8125 31.566 31.3389 31.7422 31.8193C31.8582 32.1349 32.1527 32.3615 32.4727 32.4647C32.7928 32.5679 33.1377 32.5634 33.4728 32.531C34.6973 32.4127 35.8555 31.9458 37.0303 31.5814C38.2051 31.2169 39.4642 30.9518 40.6586 31.2462C41.4584 31.4428 43.7485 32.8254 44.3208 31.6838C44.8668 30.5956 43.2047 29.5707 42.5104 29.1263C41.8244 28.6873 41.0864 28.3236 40.2994 28.1037Z" fill="#CF760F"/>
<path d="M58.7353 28.1037C59.7791 27.8115 60.8846 27.7791 61.9607 27.9124C63.8336 28.1436 65.7103 28.9313 66.8806 30.4111C67.1984 30.8125 67.4687 31.3389 67.2925 31.8193C67.1765 32.1349 66.8821 32.3615 66.562 32.4647C66.242 32.5679 65.8971 32.5634 65.5619 32.531C64.3374 32.4127 63.1792 31.9458 62.0044 31.5814C60.8296 31.2169 59.5705 30.9518 58.3761 31.2462C57.5764 31.4428 55.2863 32.8254 54.7139 31.6838C54.168 30.5956 55.83 29.5707 56.5243 29.1263C57.2111 28.6873 57.9491 28.3236 58.7353 28.1037Z" fill="#CF760F"/>
<path d="M49.5177 33.8662C48.2781 33.8662 47.5898 35.2865 47.141 36.3867C46.6921 37.4869 46.5664 38.6888 46.4858 39.8742C46.4052 41.0595 46.363 42.2576 46.0678 43.4083C45.9873 43.7216 45.8833 44.0402 45.674 44.2864C45.4225 44.5824 45.0459 44.7435 44.7695 45.0169C44.268 45.5132 44.2296 46.4545 44.7869 46.886C45.3208 47.2994 46.1446 47.1436 46.6733 47.563C47.0694 47.8771 47.3774 49.1189 49.5177 49.1189C51.6579 49.1189 51.9659 47.8778 52.362 47.563C52.8907 47.1436 53.7153 47.2994 54.2484 46.886C54.8057 46.4537 54.7673 45.5132 54.2658 45.0169C53.9894 44.7435 53.6129 44.5824 53.3613 44.2864C53.1512 44.0402 53.0473 43.7216 52.9675 43.4083C52.6723 42.2576 52.6301 41.0595 52.5495 39.8742C52.4689 38.6888 52.3432 37.4862 51.8944 36.3867C51.4455 35.2865 50.7565 33.8662 49.5177 33.8662Z" fill="#EFA02F"/>
<path d="M54.57 52.5446C53.1376 53.4076 51.3084 53.5507 49.6757 53.6614C48.7028 53.7277 47.726 53.7367 46.7516 53.6915C46.2508 53.6682 45.7507 53.6313 45.2515 53.5801C44.9254 53.5469 44.3207 53.3346 44.0586 53.6252C43.9306 53.7668 43.9449 53.9943 44.0398 54.1599C44.5503 55.0501 45.8396 55.645 46.7794 55.9153C47.8473 56.2226 48.9777 56.2791 50.0824 56.2158C51.1985 56.1518 52.3386 55.8792 53.298 55.2895C53.8357 54.9589 54.3418 54.5078 54.7108 53.995C54.9006 53.7299 55.0813 53.4219 55.1167 53.0913C55.1491 52.7848 54.9774 52.2991 54.57 52.5446Z" fill="#CF760F"/>
<path d="M51.5458 74.2692C51.3778 74.1705 51.1233 74.2225 51.0307 74.404C50.9169 74.6269 50.7362 74.7655 50.5027 74.8302C50.2113 74.9116 49.9041 74.8626 49.6254 74.7594C49.4221 74.6841 49.2015 74.5305 49.0373 74.3475C48.9861 74.291 48.9861 74.2903 48.9431 74.224C48.9055 74.166 48.8709 74.1058 48.843 74.0425C48.8581 74.0764 48.837 74.0259 48.8347 74.0176C48.8234 73.9853 48.8129 73.9521 48.8046 73.919C48.779 73.8219 48.7827 73.8392 48.7775 73.7518C48.7662 73.5485 48.6125 73.3753 48.4009 73.3753C48.2059 73.3753 48.0131 73.5477 48.0244 73.7518C48.0703 74.5749 48.6788 75.2067 49.4259 75.4846C50.2241 75.7813 51.2664 75.5961 51.6813 74.7828C51.7732 74.6036 51.728 74.3761 51.5458 74.2692Z" fill="#EFA02F"/>
<path d="M52.1497 90.1085C52.1497 92.0409 50.9711 93.608 49.5185 93.608C48.0658 93.608 46.8872 92.0409 46.8872 90.1085C46.8872 88.1754 48.065 86.609 49.5185 86.609C50.9719 86.609 52.1497 88.1754 52.1497 90.1085Z" fill="#611B0D"/>
<path d="M39.6811 90.1356C39.4176 90.1959 39.154 90.2561 38.8979 90.3088C36.9927 87.5225 35.3585 84.5629 34.0105 81.4753C34.1536 81.1892 34.3042 80.9105 34.4623 80.6394C35.8706 83.9755 37.6252 87.161 39.6811 90.1356Z" fill="#611B0D"/>
<path d="M44.1919 88.9081C43.9509 88.9834 43.7024 89.0587 43.4464 89.134C40.8633 85.5118 38.7397 81.5958 37.113 77.4539C37.3164 77.2807 37.5272 77.1301 37.7456 77.0096C39.3798 81.2268 41.5486 85.2331 44.1919 88.9081Z" fill="#611B0D"/>
<path d="M51.3747 18.6594C51.1676 18.8484 50.9477 19.0247 50.7135 19.1858C49.1041 20.2913 47.1642 20.631 45.7741 22.0731C44.4698 23.4264 45.0421 25.7202 43.6158 26.9771C43.4569 27.1172 43.2551 27.2392 43.0457 27.209C42.8273 27.1774 42.6669 26.9914 42.5404 26.8099C41.6615 25.556 41.3814 23.9008 41.7994 22.427C41.8837 22.1296 41.9906 21.7937 41.831 21.5286C41.6759 21.2718 41.3325 21.2025 41.0327 21.2183C39.7744 21.2861 38.8089 22.3698 38.217 23.4828C37.6221 24.6027 37.2463 25.8392 37.1183 27.1013C36.8886 29.3621 36.9451 31.5761 35.2589 33.3398C34.4313 34.2051 33.2505 34.7736 32.0554 34.6991C31.3332 34.6539 30.5553 34.3015 30.3165 33.6184C30.245 33.4128 30.2254 33.1877 30.117 32.9986C29.9694 32.7411 29.6538 32.5905 29.3609 32.6379C28.8164 32.7253 28.7313 33.3533 28.5137 33.7623C28.2335 34.2894 27.9843 34.8369 27.622 35.3158C27.0045 36.1314 25.8071 36.7038 24.9682 36.1186C24.3153 35.663 24.2091 34.7556 24.1632 33.9603C24.118 33.1831 24.0728 32.406 24.0276 31.6288C24.0126 31.366 23.9922 31.0881 23.8394 30.8742C23.4696 30.3546 22.6405 30.5632 22.1291 30.9435C21.617 31.3238 21.1193 31.8502 20.4822 31.8306C19.8737 31.8118 19.3872 31.2628 19.2351 30.6732C19.083 30.0835 19.1899 29.4622 19.2968 28.8635C19.5597 27.3973 19.8285 25.9115 20.4701 24.5673C21.1117 23.223 22.1833 22.0159 23.5961 21.5467C24.2822 21.3185 25.0578 21.2538 25.6068 20.7831C26.3373 20.1565 26.39 19.0736 26.5753 18.1293C26.7982 16.9929 27.3058 15.8949 28.1296 15.0808C28.891 14.3293 29.9114 13.8624 30.9845 13.8368C31.8573 13.8164 33.002 14.1658 33.7927 13.7253C33.8454 13.6959 33.9004 13.6598 33.9252 13.6048C33.9802 13.4851 33.8748 13.357 33.7791 13.2659C32.7068 12.2538 31.7105 11.1137 31.157 9.74683C30.6027 8.38076 30.5462 6.75036 31.2933 5.47993C31.5659 5.01604 32.0486 4.57173 32.575 4.68469C32.8559 4.74493 33.0796 4.95429 33.2618 5.17644C34.2385 6.3678 34.3937 8.07576 35.3764 9.26184C36.1227 10.1625 37.732 10.9066 38.9083 10.4713C40.3738 9.92907 39.7969 7.90933 39.7134 6.75864C39.6463 5.83312 39.821 4.77204 40.5899 4.25242C41.4484 3.67256 42.6164 4.0378 43.5269 4.53181C44.7107 5.17343 45.8396 6.01461 46.732 7.02824C47.5596 7.96883 48.1462 8.42971 49.4927 8.32503C51.0576 8.20379 52.8514 8.55471 53.9449 9.79878C54.9909 10.9886 54.6392 12.863 54.1076 14.1779C53.4464 15.8121 52.6579 17.4861 51.3747 18.6594Z" fill="#EFA02F"/>
<path d="M47.3873 12.488C47.0815 13.6929 46.5965 14.9362 45.5904 15.73C45.1152 16.105 44.5308 16.3731 43.9231 16.4145C43.2258 16.4627 42.5774 16.1743 41.9079 16.0289C39.3399 15.4702 37.4286 17.4809 36.3013 19.5322C36.0678 19.957 36.7177 20.3373 36.9519 19.9125C37.5665 18.7942 38.3263 17.694 39.4853 17.087C40.0877 16.7715 40.7775 16.6103 41.4568 16.7067C42.1421 16.8039 42.78 17.0983 43.4735 17.1601C46.0641 17.392 47.565 14.8519 48.114 12.6883C48.2322 12.2184 47.5062 12.0173 47.3873 12.488Z" fill="#FEDA99"/>
<path d="M34.6423 21.0534C32.7883 22.4022 31.4463 24.3737 30.9071 26.6066C30.7934 27.0772 31.5193 27.2783 31.633 26.8069C32.124 24.7736 33.3275 22.9376 35.0219 21.7041C35.4104 21.4217 35.0354 20.768 34.6423 21.0534Z" fill="#FEDA99"/>
<path d="M34.8653 26.7504C34.4496 28.5668 32.908 29.7582 31.4561 30.7673C31.2897 30.8833 31.2129 31.0971 31.3213 31.2824C31.4177 31.4473 31.6685 31.5339 31.8364 31.4172C33.448 30.2966 35.1311 28.9652 35.592 26.95C35.6997 26.4785 34.9737 26.2775 34.8653 26.7504Z" fill="#FEDA99"/>
<path d="M26.8676 23.7938C26.7351 23.6613 26.4647 23.6357 26.3352 23.7938C25.4714 24.8489 24.8351 26.0666 24.4834 27.386C24.3584 27.8544 25.0844 28.0547 25.2094 27.5863C25.5264 26.3987 26.0875 25.2789 26.8669 24.327C26.9964 24.1689 27.022 23.9475 26.8676 23.7938Z" fill="#FEDA99"/>
<path d="M71.2333 22.6612C69.9742 22.3193 68.6013 21.8389 68.5486 20.3154C68.5012 18.9478 68.9387 17.639 68.1487 16.3904C67.4213 15.242 66.1772 14.7337 64.8503 14.7525C63.4805 14.7721 62.14 15.2548 60.7641 15.0936C60.0871 15.0145 59.3981 14.7577 58.9824 14.1907C58.4876 13.5159 58.4861 12.6085 58.5426 11.811C58.5765 11.3275 57.8234 11.3298 57.7895 11.811C57.6954 13.156 57.9311 14.6049 59.1759 15.3595C60.2912 16.0357 61.6881 15.9197 62.9194 15.7292C64.4226 15.4958 66.2149 15.1689 67.3136 16.5101C68.3784 17.8107 67.5832 19.3824 67.8551 20.8644C68.1427 22.433 69.6677 23.0167 71.0345 23.3872C71.5014 23.5145 71.701 22.7877 71.2333 22.6612Z" fill="#EFA02F"/>
<path d="M74.9413 19.835C74.4096 18.2031 73.3666 16.7323 71.8461 15.8941C71.4214 15.6599 71.0411 16.3098 71.4658 16.544C74.741 18.3507 74.9187 22.4993 74.3862 25.7654C74.3087 26.2398 75.0347 26.4432 75.1122 25.9657C75.4428 23.943 75.5867 21.814 74.9413 19.835Z" fill="#EFA02F"/>
</g>
<defs>
<clipPath id="clip0_1120_6029">
<rect width="100" height="100" rx="4" fill="white"/>
</clipPath>
</defs>
</svg>
